<?xml version="1.0" encoding="UTF-8"?>
<svg id="Layer_1" xmlns="http://www.w3.org/2000/svg" version="1.1" viewBox="0 0 160 160">
  <!-- Generator: Adobe Illustrator 30.1.0, SVG Export Plug-In . SVG Version: 2.1.1 Build 136)  -->
  <defs>
    <style>
      .st0 {
        fill: #fff;
      }

      .st1 {
        font-family: VladimirScript, 'Vladimir Script';
        font-size: 24.05px;
      }

      .st1, .st2 {
        isolation: isolate;
      }

      .st1, .st3 {
        fill: #304f30;
      }

      .st4 {
        fill: #f2f2f2;
      }

      .st2 {
        font-family: ErasITC-Light, 'Eras Light ITC';
        font-size: 14.43px;
        font-weight: 300;
      }

      .st2, .st5 {
        fill: #304f30;
      }
    </style>
  </defs>
  <rect class="st0" width="160" height="160"/>
  <path class="st3" d="M103.55,41.05c.73,3.68,1.01,3.94,4.48,5.24.14.05.47.04.33.32-.18.37-2.69,1.03-3.32,1.66-.36.36-.6,1.06-.79,1.54s-.8,3.02-.95,3.03c-.62.01-.36-.85-.43-1.22-.55-2.82-2.03-4.43-4.97-4.75-.06-.28.07-.34.27-.47.57-.39,1.75-.52,2.5-.99,1.91-1.2,1.56-2.59,2.21-4.35.26-.45.52-.57.66,0h0Z"/>
  <path class="st3" d="M89.6,35.9c.17,2.82.83,3.04,3.15,3.91.14.05.47.05.33.32-.33.68-2.45.28-3.11,2.21-.05.15-.42,2.56-.88,2.03.06-1.19-.68-2.58-1.67-3.23-.5-.32-1.22-.47-1.75-.74-.13-.07-.51-.05-.24-.34.11-.12,1.55-.51,1.89-.69.96-.5,1.16-1.01,1.51-1.98.18-.49.05-1.47.75-1.49h0Z"/>
  <path class="st3" d="M103.55,41.05c-.1-.52-.37-.23-.66,0,.24-.64.44-.79.66,0Z"/>
  <path class="st5" d="M59.53,42.22c.44.47-2.19.89-2.42.99-1.09.47-1.44,1.3-1.81,2.34-.14.4-.5,2.24-.59,2.32-.21.2-.29-.02-.37-.21-.31-.73-.32-1.85-.66-2.66-.75-1.83-2.22-2.06-3.95-2.45.26-.46,1-.41,1.49-.59,1.59-.58,2.03-.91,2.58-2.58.14-.43.43-2.43.67-2.48.56-.12.93,2.4,1.12,2.87.69,1.76,2.24,2.14,3.95,2.45Z"/>
  <path class="st5" d="M53.22,55c.09.1.22,1.9.76,2.48.57.62,1.83.72,2.4,1.33-1.05.17-2.43,1.02-2.89,2.01-.25.53-.15,1.19-.6,1.48-.18-1.9-1.29-3.17-3.16-3.57,1.14-.45,2.37-.86,2.83-2.15.06-.18.25-2.05.65-1.59h0Z"/>
  <path class="st5" d="M83.28,28.76c.33.26-.7.59-.79.63-3.59,1.36-5.72,1.22-7.88,5.08-6.48,11.53,4.07,24.35,16.23,18.22.39-.12.28.51.21.71-.1.28-1.89,2-2.24,2.25-4.35,3.1-11.24,3.25-15.84.61-7.72-4.43-10.04-16.09-4.07-22.84,3.74-4.23,8.81-5.82,14.37-4.65h0Z"/>
  <path class="st5" d="M106.04,93.37c0,.14.07.31-.08.33-.87.11-2.71-.86-3.84-.98-2.02-.21-3.8.13-5.54,1.14-.06.29.15.41.33.58,1.94,1.89,5.33,3.24,7.98,3.66.21.03.48-.12.5-.09.69,1.01-2.84.86-3.24.83-2.67-.19-5.61-1.58-7.64-3.28-.43.28-1.86,1.08-1.67,1.61.45,1.28,4.11,4.35,5.35,5.12.28.17,1.81.67,1.21,1.12-3.53-.04-6.76-2.63-8.72-5.36-.13-.02-2.27,1.01-2.34,1.12-.09.15.13,1.06.21,1.3.38,1.19,1.89,3.99,2.71,4.93.29.33,1.33.85,1.33,1.33,0,.81-1.26-.1-1.65-.35-2.19-1.38-4.08-3.89-4.99-6.31l-2.98.28c-.5,3.03.61,6.14,1.64,8.95-.35.36-1.54-1.31-1.69-1.54-1.06-1.69-1.74-3.9-2.11-5.86-.08-.42.17-1.22-.29-1.37-.21-.07-2.58-.07-2.69,0-.25,2.17-.47,4.04-1.32,6.07-.46,1.09-.96,2.32-2.19,2.71.72-2.94,1.7-6.06,1.13-9.11l-2.29-.36c-.72,2.52-2.11,4.74-4.08,6.47-.34.3-2.22,1.83-2.57,1.5-.16-.15.13-.52.24-.67,1.73-2.36,2.95-3.12,3.83-6.3.56-2.02-.06-2.03-1.91-2.49,0,.21-.03.42-.13.61-1.13,2.13-5.65,6.29-8.26,5.87-.15-.02-.48-.13-.33-.33.13-.18,1.91-1.17,2.33-1.5,1.36-1.08,3.75-3.71,4.59-5.22.09-.17.22-.2.08-.43-.1-.15-1.76-1.12-1.93-1.09-.48.1-2.29,1.7-2.89,2.09-2.43,1.58-4.88,2.78-7.89,2.49-.08-.49.12-.27.39-.35,1.35-.41,2.13-.5,3.42-1.24.75-.43,5.31-3.71,5.16-4.3-.31-.15-1.79-1.37-1.91-1.38-.18-.01-2.7,1.54-3.18,1.76-1.16.54-3.4,1.44-4.62,1.52-.31.02-1.77-.03-1.92-.17-.26-.25.06-.28.23-.35,1.55-.57,3.32-.94,4.79-1.69,1.02-.52,1.95-1.48,3.04-1.95.17-.18.14-.2-.03-.35-.35-.3-1.59-.9-1.7-1.27-.16-.56.57-1.19,1.07-1.21.28-.01,2.57,1.43,3.11,1.7,8.21,4.09,13.95,5.77,23.24,3.9,4.08-.82,7.77-3.4,11.55-5.06,3.35-.52,6.53,1.02,9.18,2.95h0Z"/>
  <path class="st5" d="M106.04,78.09c.12.18.12.29,0,.33.06.25-.05.25-.33,0-8.39-8.26-18.77-12.23-30.63-10.44-9.31,1.4-17.32,6.66-23.97,13.07l-.39-.22c2.57-3.2,5.41-6.44,8.75-8.86,14.75-10.65,35.58-8.88,46.57,6.11h0Z"/>
  <path class="st5" d="M100.06,84.9c.51.79.28.94-.5.5-5.48-3.8-10.03-6.31-16.86-6.97-9.57-.93-16.26,1.44-23.96,6.77-.58.4-1.64,1.48-2.16,1.66-.89.32.1-1.01.28-1.21,1.02-1.2,4.01-3.15,5.43-4.03,6.35-3.93,11.79-5.68,19.4-5.18,5.5.37,14.75,4.23,18.36,8.47h0Z"/>
  <path class="st3" d="M106.04,78.09c.13.17,1.06,1.11.83,1.33-.38.35-.97-.81-1.16-1,.09-.02.3.03.33,0t0,0s-.02-.24,0-.33h0Z"/>
  <path class="st3" d="M100.56,85.56c.14.27.17.43-.17.33-.32-.19-.5-.27-.83-.5.59.25.74.07.5-.5.19.22.34.41.5.66Z"/>
  <path class="st3" d="M100.56,85.56c.13.21.42.33.33.66-.35.13-.38-.26-.5-.33l.17-.33Z"/>
  <path class="st3" d="M106.04,78.42c.08-.08.26.15.08.17-.06,0-.12-.13-.08-.17Z"/>
  <path class="st5" d="M31.45,78.92c-.06.7,0,.81.17.33,2.25-6.39,3.72-8.94,9.65-12.53,1.24-.75,2.65-1.71,4.14-1.76.25.24-1.84,3.93-2.13,4.43-2.37,4.04-4.92,7.29-8.78,9.99-.55.39-1.34.64-1.89,1.1-3.23,2.78-1.4,12.65-1.11,16.57l.95,2.95c-.26-5.3,0-9.27,2.92-13.77.64-.99,4.67-5.71,5.64-5.66.58.03.09,2.83,0,3.32-1.09,5.97-3.61,11.58-7.62,16.13-.13,1-.19,2.22-.12,3.22.16,1.95,3.46,9.11,4.57,11.04.61,1.07,1.49,2.18,2.24,3.15l-1.28-4.28c-1.26-4.79-.09-12.85,3.11-16.73.96-1.17,1.31,1.11,1.45,1.87.84,4.48.81,9.11-.57,13.46-.53,1.67-1.71,3.39-1.52,5.08.39,3.52,3.25,5.97,5.71,8.24,2.65,2.46,5.55,4.64,8.56,6.64.07-.31-.17-.39-.33-.58-.83-.99-1.81-1.76-2.63-2.85-2.89-3.86-4.88-10.22-4.3-15.04.05-.39.31-2.04.95-1.72.28.14,1.83,2.55,2.13,3.03,3.06,4.85,4.82,8.45,5.51,14.25.12,1-.18,1.92.42,2.9,1.29,2.08,5.89,4.41,8.18,5.28.83.31,4.13,1.04,4.34,1.81.25.89-1.7.45-2.18.35-1.42-.3-4.36-1.57-5.77-2.2-4.31-1.95-8.35-5.67-13.23-6.21-1.2-.13-2.57-.04-3.8-.19-6.13-.72-10.85-3.99-15.52-7.74-.19-.15-1.78-1.33-1.51-1.56,4.37-.57,9.21.73,13.18,2.52,1.8.81,3.12,1.91,4.76,2.8.32.24.88.64.66.17-3.45-3.07-5.85-7.25-9.13-10.05-1.81-1.54-3.72-1.96-5.7-3.1-5.51-3.19-9.53-8.55-12.54-14.04-.03-.31-.2-.57.21-.55,2.33.13,7.73,3.8,9.56,5.4,1.64,1.44,4.25,4.42,5.48,6.23.14.1.19,0,.17-.33-1.57-3.31-2.31-6.51-3.58-9.8-1.59-4.15-3.52-4.81-6.06-7.9-3.45-4.2-5.28-8.36-5.97-13.8-.04-1.91-.76-3.96,1.57-1.73,3.48,3.34,6.69,7.95,8.22,12.54.54,1.61.66,3.3,1.08,4.9.05.19-.01.54.24.5-.2-2.36-.26-4.7-.33-7.05-.1-3.42.51-7.31-.85-10.44-.85-1.96-2.44-3.79-3.21-5.76-1.93-4.88-1.19-11.99.25-16.94.36-.28,2.16,3.79,2.28,4.11,1.92,4.86,2.53,9.88,2.2,15.07-.06,1.02-.92,2.6.17,3.41.56-1.86.89-3.78,1.41-5.65.45-1.63,1.46-3.79,1.58-5.39.07-.91-.07-1.91,0-2.83.37-4.9,3.83-12.78,7.64-15.95,1.53-1.27,1.89-1.25,1.64.98-.91,8.31-3.08,11.41-7.7,17.88-1.59,2.23-3.22,9.57-3.58,12.45h.01Z"/>
  <path class="st4" d="M33.61,97.19c-.3.04-.15-.36-.12-.54.34-2.19,1.49-4.82,2.53-6.77.34-.64.76-1.46,1.25-1.99-1.25,3.1-2.76,6.06-3.65,9.3h0Z"/>
  <path class="st4" d="M46.57,128.75c.07.07.06.45-.23.31l-9.4-4.47,9.63,4.15h0Z"/>
  <path class="st4" d="M29.23,108.22c1.37,1.28,3.2,2.93,4.38,4.34.16.19.4.27.33.58l-7.39-6.97v-.33c.92.76,1.81,1.57,2.68,2.39Z"/>
  <path class="st4" d="M28.79,74.6l-.42-1.32c-.37-2.91-1-5.79-1.67-8.64l.18-.67c.71,3.52,1.59,7.04,1.91,10.63h0Z"/>
  <path class="st4" d="M40.42,114.29l-.34-.25c.48-2.79.06-5.64.76-8.38.05-.19,0-.54.25-.5-.55,3.02-.56,6.07-.66,9.13h0Z"/>
  <path class="st4" d="M26.14,89.38c-.05.11-.16.11-.33,0-.84-1.44-2.01-2.96-2.75-4.48-.13-.27-.29-.52-.24-.84,1.23,1.68,2.29,3.51,3.32,5.31Z"/>
  <path class="st4" d="M26.14,89.38c.8,1.4,1.65,2.77,2.33,4.24.04.11-.15.12-.25.08-.23-.09-2.08-3.76-2.41-4.32l.08-.16.25.16h0Z"/>
  <path class="st4" d="M37.27,57.99c-.73,1.73-1.29,3.57-1.99,5.31-.19.18-.25.07-.17-.33.65-1.72,1.25-3.46,1.99-5.15.22-.22.22-.13.17.17Z"/>
  <path class="st4" d="M36.6,73.6c-.72.83-1.68,2.08-2.33,2.99-.34.18-.26-.04-.17-.33.68-1.02,1.5-1.92,2.33-2.82.23-.22.32-.13.17.17Z"/>
  <path class="st4" d="M51.22,119.78c.26.26,1.06,3.4,1.33,3.98-.43.08-.29-.08-.41-.33-.3-.66-1.17-2.8-1.25-3.41-.04-.32.21-.35.32-.24h0Z"/>
  <path class="st4" d="M36.44,73.44c.71-.78,1.44-1.65,2.24-2.33.19-.16.27-.4.58-.33.21.19-2.48,2.61-2.66,2.82l-.17-.17h0Z"/>
  <path class="st4" d="M37.1,57.83c.33-.74.69-1.78,1.13-2.44.14-.21.19-.45.53-.38-.42.98-1.08,2.02-1.5,2.99l-.17-.17h0Z"/>
  <path class="st4" d="M35.28,63.31c-.07.18-.16,1-.5.66-.11-.1.27-.82.33-1l.17.33Z"/>
  <path class="st3" d="M128.55,78.4c.06.7,0,.81-.17.33-2.25-6.39-3.72-8.94-9.65-12.53-1.24-.75-2.65-1.71-4.14-1.76-.25.24,1.84,3.93,2.13,4.43,2.37,4.04,4.92,7.29,8.78,9.99.55.39,1.34.64,1.89,1.1,3.23,2.78,1.4,12.65,1.11,16.57l-.95,2.95c.26-5.3,0-9.27-2.92-13.77-.64-.99-4.67-5.71-5.64-5.66-.58.03-.09,2.83,0,3.32,1.09,5.97,3.61,11.58,7.62,16.13.13,1,.19,2.22.12,3.22-.16,1.95-3.46,9.11-4.57,11.04-.61,1.07-1.49,2.18-2.24,3.15l1.28-4.28c1.26-4.79.09-12.85-3.11-16.73-.96-1.17-1.31,1.11-1.45,1.87-.84,4.48-.81,9.11.57,13.46.53,1.67,1.71,3.39,1.52,5.08-.39,3.52-3.25,5.97-5.71,8.24-2.65,2.46-5.55,4.64-8.56,6.64-.07-.31.17-.39.33-.58.83-.99,1.81-1.76,2.63-2.85,2.89-3.86,4.88-10.22,4.3-15.04-.05-.39-.31-2.04-.95-1.72-.28.14-1.83,2.55-2.13,3.03-3.06,4.85-4.82,8.45-5.51,14.25-.12,1,.18,1.92-.42,2.9-1.29,2.08-5.89,4.41-8.18,5.28-.83.31-4.13,1.04-4.34,1.81-.25.89,1.7.45,2.18.35,1.42-.3,4.36-1.57,5.77-2.2,4.31-1.95,8.35-5.67,13.23-6.21,1.2-.13,2.57-.04,3.8-.19,6.13-.72,10.85-3.99,15.52-7.74.19-.15,1.78-1.33,1.51-1.56-4.37-.57-9.21.73-13.18,2.52-1.8.81-3.12,1.91-4.76,2.8-.32.24-.88.64-.66.17,3.45-3.07,5.85-7.25,9.13-10.05,1.81-1.54,3.72-1.96,5.7-3.1,5.51-3.19,9.53-8.55,12.54-14.04.03-.31.2-.57-.21-.55-2.33.13-7.73,3.8-9.56,5.4-1.64,1.44-4.25,4.42-5.48,6.23-.14.1-.19,0-.17-.33,1.57-3.31,2.31-6.51,3.58-9.8,1.59-4.15,3.52-4.81,6.06-7.9,3.45-4.2,5.28-8.36,5.97-13.8.04-1.91.76-3.96-1.57-1.73-3.48,3.34-6.69,7.95-8.22,12.54-.54,1.61-.66,3.3-1.08,4.9-.05.19.01.54-.24.5.2-2.36.26-4.7.33-7.05.1-3.42-.51-7.31.85-10.44.85-1.96,2.44-3.79,3.21-5.76,1.93-4.88,1.19-11.99-.25-16.94-.36-.28-2.16,3.79-2.28,4.11-1.92,4.86-2.53,9.88-2.2,15.07.06,1.02.92,2.6-.17,3.41-.56-1.86-.89-3.78-1.41-5.65-.45-1.63-1.46-3.79-1.58-5.39-.07-.91.07-1.91,0-2.83-.37-4.9-3.83-12.78-7.64-15.95-1.53-1.27-1.89-1.25-1.64.98.91,8.31,3.08,11.41,7.7,17.88,1.59,2.23,3.22,9.57,3.58,12.45h-.01Z"/>
  <path class="st3" d="M113.59,126.23c-1.01.9-2.08,1.91-3.32,2.49-.14.71.85,0,1.08-.17.94-.69,1.97-1.74,2.91-2.49-.24.13-.41.45-.66.17h0Z"/>
  <path class="st3" d="M125.56,109.79c-.2.42-1.96,3.33-1.83,3.49.26.31.36-.24.41-.33.51-.86,1.07-2.08,1.58-2.83l-.17-.33h0Z"/>
  <path class="st3" d="M128.38,78.73c.09.26,0,.86.33.83.17-.43-.13-.9-.16-1.16l-.17.33h0Z"/>
  <path class="st4" d="M126.39,96.67c.3.04.15-.36.12-.54-.34-2.19-1.49-4.82-2.53-6.77-.34-.64-.76-1.46-1.25-1.99,1.25,3.1,2.76,6.06,3.65,9.3h0Z"/>
  <path class="st4" d="M113.43,128.23c-.07.07-.06.45.23.31l9.4-4.47-9.63,4.15h0Z"/>
  <path class="st4" d="M130.77,107.69c-1.37,1.28-3.2,2.93-4.38,4.34-.16.19-.4.27-.33.58l7.39-6.97v-.33c-.92.76-1.81,1.57-2.68,2.39Z"/>
  <path class="st4" d="M131.2,74.08l.42-1.32c.37-2.91,1-5.79,1.67-8.64l-.18-.67c-.71,3.52-1.59,7.04-1.91,10.63h0Z"/>
  <path class="st4" d="M119.58,113.77l.34-.25c-.48-2.79-.06-5.64-.76-8.38-.05-.19,0-.54-.25-.5.55,3.02.56,6.07.66,9.13h0Z"/>
  <path class="st4" d="M133.86,88.86c.05.11.16.11.33,0,.84-1.44,2.01-2.96,2.75-4.48.13-.27.29-.52.24-.84-1.23,1.68-2.29,3.51-3.32,5.31Z"/>
  <path class="st3" d="M133.86,88.86c-.8,1.4-1.65,2.77-2.33,4.24-.04.11.15.12.25.08.23-.09,2.08-3.76,2.41-4.32l-.08-.16-.25.16h0Z"/>
  <path class="st4" d="M122.73,57.47c.73,1.73,1.29,3.57,1.99,5.31.19.18.25.07.17-.33-.65-1.72-1.25-3.46-1.99-5.15-.22-.22-.22-.13-.17.17Z"/>
  <path class="st3" d="M123.4,73.08c.72.83,1.68,2.08,2.33,2.99.34.18.26-.04.17-.33-.68-1.02-1.5-1.92-2.33-2.82-.23-.22-.32-.13-.17.17Z"/>
  <path class="st4" d="M108.78,119.25c-.26.26-1.06,3.4-1.33,3.98.43.08.29-.08.41-.33.3-.66,1.17-2.8,1.25-3.41.04-.32-.21-.35-.32-.24Z"/>
  <path class="st4" d="M123.56,72.92c-.71-.78-1.44-1.65-2.24-2.33-.19-.16-.27-.4-.58-.33-.21.19,2.48,2.61,2.66,2.82l.17-.17h0Z"/>
  <path class="st4" d="M122.9,57.3c-.33-.74-.69-1.78-1.13-2.44-.14-.21-.19-.45-.53-.38.42.98,1.08,2.02,1.5,2.99l.17-.17h0Z"/>
  <path class="st3" d="M125.72,76.07c.35.49.62,1.29,1.16,1.66-.08-.77-.59-1.38-1-1.99l-.17.33Z"/>
  <path class="st3" d="M124.72,62.79c.07.18.16,1,.5.66.11-.1-.27-.82-.33-1l-.17.33Z"/>
  <text class="st2" transform="translate(30.37 154.24)"><tspan x="0" y="0">Esthetics &amp; more</tspan></text>
  <text class="st1" transform="translate(25.25 21.28)"><tspan x="0" y="0">Siren Studio</tspan></text>
</svg>